PathFileType   4   (X/Y/Z)
DataRate	CameraRate	NumFrames	NumMarkers	Units	OrigDataRate	OrigDataStartFrame	OrigNumFrames
120.0	120.0	6	37	mm	120.0	79	125
Frame#	Time	midhip	hip_r	hip_l	knee_r	knee_l	ankle_r	ankle_l	midasis	asis_r	asis_l	psis_r	psis_l	epicondLat_r	epicondLat_l	epicondMed_r	epicondMed_l	malleolusLat_r	malleolusLat_l	malleolusMedv_r	malleolusMedv_l	neck	subclavicle_r	subclavicle_l	sternalnotch	xyphoidprocess	thighwand_r	thighwand_l	upperleg1_r	upperleg1_l	upperleg2_r	upperleg2_l	shankwand_r	shankwand_l	lowerleg1_r	lowerleg1_l	toe_r	toe_l
 	 	X1	Y1	Z1	X2	Y2	Z2	X3	Y3	Z3	X4	Y4	Z4	X5	Y5	Z5	X6	Y6	Z6	X7	Y7	Z7	X8	Y8	Z8	X9	Y9	Z9	X10	Y10	Z10	X11	Y11	Z11	X12	Y12	Z12	X13	Y13	Z13	X14	Y14	Z14	X15	Y15	Z15	X16	Y16	Z16	X17	Y17	Z17	X18	Y18	Z18	X19	Y19	Z19	X20	Y20	Z20	X21	Y21	Z21	X22	Y22	Z22	X23	Y23	Z23	X24	Y24	Z24	X25	Y25	Z25	X26	Y26	Z26	X27	Y27	Z27	X28	Y28	Z28	X29	Y29	Z29	X30	Y30	Z30	X31	Y31	Z31	X32	Y32	Z32	X33	Y33	Z33	X34	Y34	Z34	X35	Y35	Z35	X36	Y36	Z36	X37	Y37	Z37

	79	0.77500	765.106	773.427	-231.595	745.693	781.863	-152.795	745.503	771.968	-308.109	822.228	419.272	-185.399	813.388	398.241	-358.919	799.508	61.465	-196.294	523.321	184.586	-322.091	870.926	853.080	-235.458	871.078	860.976	-111.532	870.774	845.185	-359.385	625.491	918.849	-208.903	623.685	912.946	-262.954	833.849	415.391	-114.956	809.006	407.072	-429.736	799.862	424.091	-249.481	833.060	376.278	-275.519	798.253	60.374	-157.830	511.641	194.152	-358.592	798.375	71.770	-232.700	535.667	199.940	-282.716	648.450	1341.147	-243.340	779.739	1279.939	-209.774	775.712	1284.554	-292.461	760.745	1276.531	-262.796	816.093	1205.850	-268.247	957.041	594.534	-114.686	963.756	614.633	-345.504	912.956	611.145	-129.164	914.473	618.580	-351.152	900.466	535.296	-138.714	914.021	544.856	-356.141	899.644	197.235	-182.022	589.024	253.089	-436.353	851.347	206.715	-184.113	603.382	263.947	-390.476	910.488	44.827	-196.392	556.918	87.669	-333.247
	80	0.78333	773.101	773.975	-232.155	753.708	782.274	-153.284	753.418	772.903	-308.631	825.037	419.270	-185.028	831.357	400.337	-359.000	799.726	61.494	-196.325	544.884	182.657	-321.154	879.126	853.378	-235.764	879.359	860.877	-111.439	878.894	845.878	-360.089	633.918	919.975	-208.301	632.140	914.004	-262.392	835.602	415.173	-114.432	827.254	409.057	-429.847	802.443	425.464	-249.547	850.752	378.866	-275.507	798.352	60.376	-157.866	532.912	192.076	-357.599	799.248	71.352	-232.792	558.128	195.832	-282.139	657.635	1342.273	-243.147	788.966	1280.541	-209.695	784.789	1285.365	-292.345	769.653	1277.193	-262.665	824.997	1206.491	-268.409	961.527	592.292	-112.291	976.402	620.057	-344.626	917.836	609.908	-127.250	927.431	623.073	-350.281	903.941	534.191	-137.252	928.470	549.164	-355.496	900.409	196.846	-181.678	609.215	252.258	-435.549	851.734	206.514	-184.347	624.847	262.301	-389.226	910.612	44.696	-196.340	582.189	87.688	-333.148
	81	0.79167	781.038	774.587	-232.739	761.651	782.736	-153.800	761.338	773.822	-309.173	827.841	419.264	-184.730	848.997	402.582	-358.855	799.980	61.511	-196.393	567.000	179.907	-320.220	887.266	853.736	-236.069	887.517	860.886	-111.440	887.015	846.586	-360.698	642.285	921.033	-207.767	640.551	915.047	-261.924	837.324	414.972	-113.991	845.209	411.174	-429.736	805.508	427.075	-250.263	867.075	382.354	-274.237	798.441	60.377	-157.940	554.711	189.157	-356.602	799.659	71.729	-232.875	578.268	196.741	-280.927	667.191	1343.179	-242.844	798.112	1281.272	-209.992	793.687	1285.673	-292.004	778.535	1277.779	-262.515	833.671	1206.785	-268.149	965.927	590.011	-109.909	988.803	625.507	-343.580	922.540	608.554	-125.262	939.833	627.792	-349.726	907.561	533.313	-136.005	942.359	553.362	-354.500	901.160	196.451	-181.279	629.674	250.873	-434.672	852.998	206.634	-184.018	643.108	262.704	-389.236	910.745	44.550	-196.323	608.319	87.277	-332.819
	82	0.80000	788.918	775.257	-233.322	769.526	783.231	-154.314	769.285	774.728	-309.710	830.657	419.247	-184.505	866.309	404.957	-358.478	800.265	61.521	-196.494	589.667	176.388	-319.249	895.347	854.169	-236.322	895.540	861.000	-111.494	895.153	847.338	-361.150	650.583	921.999	-207.310	648.913	916.047	-261.550	839.036	414.777	-113.639	862.861	413.405	-429.394	809.690	428.658	-251.882	882.696	386.452	-272.227	798.522	60.381	-158.051	577.044	185.432	-355.568	799.968	72.461	-232.984	600.129	194.680	-279.951	676.449	1343.765	-242.319	807.063	1281.815	-210.078	802.484	1285.898	-291.907	787.403	1278.274	-262.355	842.336	1207.018	-267.926	970.225	587.684	-107.546	1000.941	630.926	-342.382	927.406	607.000	-123.276	952.021	632.569	-349.346	911.592	532.337	-135.018	956.063	557.756	-353.229	901.912	196.038	-180.843	650.412	248.931	-433.722	854.790	206.908	-183.477	663.439	261.874	-388.646	910.885	44.400	-196.339	635.220	86.470	-332.306
	83	0.80833	796.774	775.966	-233.842	777.350	783.731	-154.800	777.277	775.615	-310.217	833.504	419.217	-184.362	883.297	407.429	-357.869	800.572	61.524	-196.626	612.886	172.157	-318.208	903.379	854.672	-236.485	903.438	861.196	-111.567	903.320	848.148	-361.403	658.795	922.848	-206.934	657.218	916.975	-261.270	840.762	414.578	-113.383	880.206	415.722	-428.819	812.483	430.065	-252.153	900.533	388.553	-272.751	798.603	60.388	-158.193	599.919	180.948	-354.469	801.249	72.160	-233.189	623.619	190.384	-279.066	685.100	1344.544	-241.844	815.652	1282.230	-209.489	811.301	1286.422	-291.592	796.266	1278.682	-262.193	850.933	1207.430	-267.449	974.401	585.315	-105.217	1012.797	636.259	-341.044	932.366	605.522	-121.425	963.978	636.583	-348.402	915.010	531.063	-133.619	970.009	562.168	-352.507	902.673	195.603	-180.411	671.450	246.432	-432.699	856.219	206.685	-183.672	684.862	259.676	-387.930	911.031	44.253	-196.392	662.795	85.294	-331.651
	84	0.81667	804.641	776.679	-234.278	785.149	784.195	-155.229	785.328	776.467	-310.666	836.381	419.178	-184.304	899.958	409.951	-357.046	800.889	61.523	-196.783	636.657	167.273	-317.088	911.380	855.222	-236.526	911.236	861.432	-111.626	911.524	849.013	-361.425	666.905	923.556	-206.647	665.461	917.802	-261.087	842.509	414.376	-113.229	897.234	418.082	-428.030	814.193	432.003	-252.005	919.399	390.025	-273.270	798.693	60.400	-158.362	623.346	175.753	-353.298	802.152	71.667	-233.354	646.719	185.847	-277.857	693.823	1345.533	-241.636	824.066	1282.349	-208.868	820.205	1286.744	-291.426	805.110	1279.024	-262.040	859.274	1207.480	-266.981	978.450	582.919	-102.938	1024.366	641.457	-339.581	937.248	604.203	-119.552	975.557	640.181	-346.869	917.915	529.849	-132.126	983.665	566.505	-351.605	903.448	195.149	-180.033	692.817	243.395	-431.603	856.684	206.164	-183.772	705.410	256.710	-386.881	911.184	44.121	-196.482	690.944	83.773	-330.900
